<?xml version="1.0" encoding="iso-8859-1"?>
<!-- Generator: Adobe Illustrator 19.0.0, SVG Export Plug-In . SVG Version: 6.00 Build 0)  -->
<svg version="1.1" id="Capa_1" xmlns="http://www.w3.org/2000/svg" xmlns:xlink="http://www.w3.org/1999/xlink" x="0px" y="0px"
	 viewBox="0 0 480 480" style="enable-background:new 0 0 480 480;" xml:space="preserve">
<g>
	<g>
		<path d="M328,0H152c-22.08,0.026-39.974,17.92-40,40v400c0.026,22.08,17.92,39.974,40,40h176c22.08-0.026,39.974-17.92,40-40V40
			C367.974,17.92,350.08,0.026,328,0z M352,440c0,13.255-10.745,24-24,24H152c-13.255,0-24-10.745-24-24v-24h224V440z M352,400H128
			V88h224V400z M352,72H128V40c0-13.255,10.745-24,24-24h176c13.255,0,24,10.745,24,24V72z"/>
	</g>
</g>
<g>
	<g>
		<rect x="184" y="40" width="112" height="16"/>
	</g>
</g>
<g>
	<g>
		<rect x="224" y="432" width="32" height="16"/>
	</g>
</g>
<g>
	<g>
		<rect x="144" y="104" width="32" height="16"/>
	</g>
</g>
<g>
	<g>
		<rect x="192" y="104" width="32" height="16"/>
	</g>
</g>
<g>
	<g>
		<path d="M168,232c-4.418,0-8,3.582-8,8v40c0,4.418,3.582,8,8,8s8-3.582,8-8v-40C176,235.582,172.418,232,168,232z"/>
	</g>
</g>
<g>
	<g>
		<path d="M312,232c-4.418,0-8,3.582-8,8v40c0,4.418,3.582,8,8,8s8-3.582,8-8v-40C320,235.582,316.418,232,312,232z"/>
	</g>
</g>
<g>
	<g>
		<path d="M264,184v-16c0-4.418-3.582-8-8-8s-8,3.582-8,8v16h-16v-16c0-4.418-3.582-8-8-8s-8,3.582-8,8v16
			c-13.255,0-24,10.745-24,24v120h16v32c0,4.418,3.582,8,8,8s8-3.582,8-8v-32h32v32c0,4.418,3.582,8,8,8s8-3.582,8-8v-32h16V208
			C288,194.745,277.255,184,264,184z M272,312h-64v-64h64V312z M272,232h-64v-24c0-4.418,3.582-8,8-8h48c4.418,0,8,3.582,8,8V232z"
			/>
	</g>
</g>
<g>
</g>
<g>
</g>
<g>
</g>
<g>
</g>
<g>
</g>
<g>
</g>
<g>
</g>
<g>
</g>
<g>
</g>
<g>
</g>
<g>
</g>
<g>
</g>
<g>
</g>
<g>
</g>
<g>
</g>
</svg>
