<svg id="Capa_1" enable-background="new 0 0 483 483" height="512" viewBox="0 0 483 483" width="512" xmlns="http://www.w3.org/2000/svg"><path d="m383.5 46c0-25.405-20.595-46-46-46h-192c-25.405 0-46 20.595-46 46v391c0 25.405 20.595 46 46 46h192c25.405 0 46-20.595 46-46zm-12 331h-260v-286h260zm-33.857 95h-192.286c-18.748 0-33.857-15.622-33.857-34.369v-48.631h260v48.631c0 18.747-15.109 34.369-33.857 34.369zm33.857-393h-260v-32.631c0-18.747 15.109-34.369 33.857-34.369h192.286c18.748 0 33.857 15.622 33.857 34.369z"/><path d="m275.535 37h-68.07c-3.314 0-6 2.686-6 6s2.686 6 6 6h68.07c3.314 0 6-2.686 6-6s-2.686-6-6-6z"/><path d="m241.5 403.56c-14.881 0-26.945 12.064-26.945 26.945s12.064 26.945 26.945 26.945 26.945-12.064 26.945-26.945c-.017-14.874-12.071-26.928-26.945-26.945zm0 41.89c-8.254 0-14.945-6.691-14.945-14.945s6.691-14.945 14.945-14.945 14.945 6.691 14.945 14.945c-.009 8.25-6.695 14.936-14.945 14.945z"/><path d="m167.375 246.833 47.394 35.838c2.629 2.017 6.396 1.521 8.413-1.108s1.521-6.396-1.108-8.413c-.022-.017-.044-.034-.066-.05l-41.065-31.052 41.064-31.048c2.657-1.98 3.206-5.739 1.226-8.396s-5.739-3.206-8.396-1.226c-.023.017-.045.034-.068.051l-47.394 35.837c-2.643 1.999-3.165 5.762-1.166 8.405.333.441.726.833 1.166 1.166z"/><path d="m259.826 281.5c1.998 2.64 5.758 3.162 8.4 1.167l47.394-35.838c2.643-1.999 3.165-5.762 1.166-8.405-.333-.441-.726-.833-1.166-1.166l-47.394-35.837c-2.645-1.997-6.409-1.472-8.406 1.173s-1.472 6.409 1.173 8.406l41.065 31.052-41.065 31.048c-2.64 1.998-3.162 5.758-1.167 8.4z"/><path d="m232.514 301.716c3.276.496 6.334-1.759 6.83-5.035l16.177-106.893c.497-3.276-1.756-6.335-5.033-6.833-3.276-.497-6.335 1.756-6.832 5.033l-16.177 106.897c-.496 3.276 1.758 6.335 5.034 6.831z"/><path d="m241.5 352.4c60.972 0 110.4-49.428 110.4-110.4s-49.428-110.4-110.4-110.4-110.4 49.428-110.4 110.4c.067 60.944 49.456 110.333 110.4 110.4zm0-208.8c54.345 0 98.4 44.055 98.4 98.4s-44.055 98.4-98.4 98.4-98.4-44.055-98.4-98.4c.06-54.32 44.08-98.34 98.4-98.4z"/></svg>