<svg height="512" viewBox="0 0 64 64" width="512" xmlns="http://www.w3.org/2000/svg"><g id="Layer_21" data-name="Layer 21"><circle cx="57" cy="21" r="2"/><circle cx="57" cy="31" r="2"/><path d="m26.8 10.1a15.77 15.77 0 0 0 4.2.9v-6.59l-.64.64a18.37 18.37 0 0 0 -3.56 5.05z"/><path d="m33 25v6.55l.64-.64a18.37 18.37 0 0 0 3.56-5.01 15.77 15.77 0 0 0 -4.2-.9z"/><path d="m20.75 27.07a18 18 0 0 1 3.45-2.23 20.46 20.46 0 0 1 -1.15-5.84h-6a14.94 14.94 0 0 0 3.29 8.42z"/><path d="m42 28.61a15.64 15.64 0 0 0 -3-1.92 20.14 20.14 0 0 1 -4 5.67l-.38.39a15 15 0 0 0 7.62-3.87z"/><path d="m25 26.69a15.64 15.64 0 0 0 -3 1.92l-.32.27a15 15 0 0 0 7.62 3.87l-.3-.39a20.14 20.14 0 0 1 -4-5.67z"/><path d="m25.05 17h5.95v-4a17.78 17.78 0 0 1 -5-1 18.18 18.18 0 0 0 -.95 5z"/><path d="m26 24a17.78 17.78 0 0 1 5-1v-4h-5.95a18.18 18.18 0 0 0 .95 5z"/><path d="m30.36 31 .64.64v-6.64a15.77 15.77 0 0 0 -4.2.86 18.37 18.37 0 0 0 3.56 5.14z"/><path d="m33.64 5.05-.64-.64v6.59a15.77 15.77 0 0 0 4.2-.86 18.37 18.37 0 0 0 -3.56-5.09z"/><path d="m39 9.31a15.64 15.64 0 0 0 3-1.92l.32-.27a15 15 0 0 0 -7.62-3.87l.38.39a20.14 20.14 0 0 1 3.92 5.67z"/><path d="m38 12a17.44 17.44 0 0 1 -5 1v4h6a18.32 18.32 0 0 0 -1-5z"/><path d="m24.2 11.16a18 18 0 0 1 -3.45-2.23l-.41-.35a14.94 14.94 0 0 0 -3.29 8.42h6a20.46 20.46 0 0 1 1.15-5.84z"/><path d="m41 17h6a14.94 14.94 0 0 0 -3.29-8.42l-.41.35a18 18 0 0 1 -3.45 2.23 20.46 20.46 0 0 1 1.15 5.84z"/><path d="m39.8 24.84a18 18 0 0 1 3.45 2.23l.41.35a14.94 14.94 0 0 0 3.34-8.42h-6a20.46 20.46 0 0 1 -1.2 5.84z"/><path d="m25 9.31a20.14 20.14 0 0 1 4-5.67l.38-.39a15 15 0 0 0 -7.62 3.87l.32.27a15.64 15.64 0 0 0 2.92 1.92z"/><path d="m39 19h-6v4a17.44 17.44 0 0 1 5 1 18.32 18.32 0 0 0 1-5z"/><circle cx="24" cy="57" r="1"/><circle cx="24" cy="43" r="1"/><path d="m3 61h26v-8h-26zm21-7a3 3 0 1 1 -3 3 3 3 0 0 1 3-3zm-8 0a3 3 0 1 1 -3 3 3 3 0 0 1 3-3zm-11 0h6v2h-6zm0 4h6v2h-6z"/><circle cx="16" cy="57" r="1"/><circle cx="16" cy="43" r="1"/><path d="m5 49h22v2h-22z"/><path d="m3 47h26v-8h-26zm21-7a3 3 0 1 1 -3 3 3 3 0 0 1 3-3zm-8 0a3 3 0 1 1 -3 3 3 3 0 0 1 3-3zm-11 0h6v2h-6zm0 4h6v2h-6z"/><path d="m35 39v8h26v-8zm8 7h-6v-2h6zm0-4h-6v-2h6zm5 4a3 3 0 1 1 3-3 3 3 0 0 1 -3 3zm8 0a3 3 0 1 1 3-3 3 3 0 0 1 -3 3z"/><path d="m35 61h26v-8h-26zm21-7a3 3 0 1 1 -3 3 3 3 0 0 1 3-3zm-8 0a3 3 0 1 1 -3 3 3 3 0 0 1 3-3zm-11 0h6v2h-6zm0 4h6v2h-6z"/><path d="m37 49h22v2h-22z"/><circle cx="48" cy="43" r="1"/><circle cx="56" cy="43" r="1"/><circle cx="48" cy="57" r="1"/><circle cx="56" cy="57" r="1"/><circle cx="7" cy="21" r="2"/><circle cx="7" cy="31" r="2"/><path d="m56 15v3.18a2.87 2.87 0 0 1 2 0v-3.18a2 2 0 0 0 -2-2h-7.75a16.62 16.62 0 0 1 .47 2z"/><path d="m56 33.82v4.18h2v-4.18a2.87 2.87 0 0 1 -2 0z"/><path d="m8 18.18v-3.18h7.28a16.62 16.62 0 0 1 .47-2h-7.75a2 2 0 0 0 -2 2v3.18a2.87 2.87 0 0 1 2 0z"/><path d="m6 33.82v4.18h2v-4.18a2.87 2.87 0 0 1 -2 0z"/><path d="m6 23.82v4.36a2.87 2.87 0 0 1 2 0v-4.36a2.87 2.87 0 0 1 -2 0z"/><path d="m58 28.18v-4.36a2.87 2.87 0 0 1 -2 0v4.36a2.87 2.87 0 0 1 2 0z"/></g></svg>